{"title":"Unknown.2011.720p.BRRip.x264.AAC.mp4-Zen_Bud","uid":6462565,"size":1472924802,"categoryP":"video","categoryS":"hd___movies","magnet":"?xt=urn:btih:a8357f958ce1622bf168579da70900db878011af&amp;dn=Unknown.2011.720p.BRRip.x264.AAC.mp4-Zen_Bud&amp;tr=udp%3A%2F%2Ftracker.openbittorrent.com%3A80&amp;tr=udp%3A%2F%2Fopen.demonii.com%3A1337&amp;tr=udp%3A%2F%2Ftracker.coppersurfer.tk%3A6969&amp;tr=udp%3A%2F%2Fexodus.desync.com%3A6969","seeders":1,"leechers":0,"uploader":"Zen_Bud","files":-1,"time":1307827651,"description":"                    Unknown.2011.720p.BRRip.x264.AAC.mp4-Zen_Bud\n\nFormat                           : MPEG-4\nFile size                        : 1.37 GiB\nDuration                         : 1h 53mn\nOverall bit rate                 : 1 735 Kbps\n\n\nVideo\n\nFormat                           : AVC\nFormat profile                   : &lt;a class=&quot;__cf_email__&quot; href=&quot;/cdn-cgi/l/email-protection&quot; data-cfemail=&quot;2d604c44436d611e031c&quot;&gt;[email&amp;#160;protected]&lt;/a&gt;&lt;script cf-hash='f9e31' type=&quot;text/javascript&quot;&gt;\n/* &lt;![CDATA[ */!function(){try{var t=&quot;currentScript&quot;in document?document.currentScript:function(){for(var t=document.getElementsByTagName(&quot;script&quot;),e=t.length;e--;)if(t[e].getAttribute(&quot;cf-hash&quot;))return t[e]}();if(t&amp;&amp;t.previousSibling){var e,r,n,i,c=t.previousSibling,a=c.getAttribute(&quot;data-cfemail&quot;);if(a){for(e=&quot;&quot;,r=parseInt(a.substr(0,2),16),n=2;a.length-n;n+=2)i=parseInt(a.substr(n,2),16)^r,e+=String.fromCharCode(i);e=document.createTextNode(e),c.parentNode.replaceChild(e,c)}}}catch(u){}}();/* ]]&gt; */&lt;/script&gt;\nFormat settings, CABAC           : Yes\nFormat settings, ReFrames        : 4 frames\nDuration                         : 1h 53mn\nBit rate                         : 1 538 Kbps\nWidth                            : 1 280 pixels\nHeight                           : 528 pixels\nDisplay aspect ratio             : 2.40:1\nStream size                      : 1.22 GiB (89%)\nWriting library                  : x264 core 115\nEncoding settings                : cabac=1 / ref=3 / deblock=1:0:0 / analyse=0x1:0x111 \n\nAudio\n\nFormat                           : AAC\nDuration                         : 1h 53mn\nBit rate                         : 192 Kbps\nChannel(s)                       : 2 channels\nChannel positions                : Front: L R\nSampling rate                    : 48.0 KHz\nStream size                      : 155 MiB (11%)\nLanguage                         : English\n\n\n\nSubtitel                         : Svenska(.srt)\n\n============================================================================\n\nA man awakens from a coma, only to discover that someone has taken on his \nidentity and that no one, (not even his wife), believes him. With the help \nof a young woman, he sets out to prove who he is. \n\n===========================================================================\n\n &lt;a href=&quot;\nhttp://img405.imageshack.us/i/vlcsnap2011061121h13m26.png/&quot; rel=&quot;nofollow&quot; target=&quot;_NEW&quot;&gt;\nhttp://img405.imageshack.us/i/vlcsnap2011061121h13m26.png/&lt;/a&gt;\n &lt;a href=&quot;\nhttp://img830.imageshack.us/i/vlcsnap2011061121h13m45.png/&quot; rel=&quot;nofollow&quot; target=&quot;_NEW&quot;&gt;\nhttp://img830.imageshack.us/i/vlcsnap2011061121h13m45.png/&lt;/a&gt;\n &lt;a href=&quot;\nhttp://img62.imageshack.us/i/vlcsnap2011061121h14m22.png/&quot; rel=&quot;nofollow&quot; target=&quot;_NEW&quot;&gt;\nhttp://img62.imageshack.us/i/vlcsnap2011061121h14m22.png/&lt;/a&gt;\n &lt;a href=&quot;\nhttp://img690.imageshack.us/i/vlcsnap2011061121h14m40.png/&quot; rel=&quot;nofollow&quot; target=&quot;_NEW&quot;&gt;\nhttp://img690.imageshack.us/i/vlcsnap2011061121h14m40.png/&lt;/a&gt;\n &lt;a href=&quot;\nhttp://img808.imageshack.us/i/vlcsnap2011061121h16m05.png/&quot; rel=&quot;nofollow&quot; target=&quot;_NEW&quot;&gt;\nhttp://img808.imageshack.us/i/vlcsnap2011061121h16m05.png/&lt;/a&gt;","torrent":{"xt":"urn:btih:a8357f958ce1622bf168579da70900db878011af","amp;dn":"Unknown.2011.720p.BRRip.x264.AAC.mp4-Zen_Bud","amp;tr":["udp%3A%2F%2Ftracker.openbittorrent.com%3A80","udp%3A%2F%2Fopen.demonii.com%3A1337","udp%3A%2F%2Ftracker.coppersurfer.tk%3A6969","udp%3A%2F%2Fexodus.desync.com%3A6969"],"infoHash":"a8357f958ce1622bf168579da70900db878011af","infoHashBuffer":{"type":"Buffer","data":[168,53,127,149,140,225,98,43,241,104,87,157,167,9,0,219,135,128,17,175]},"announce":[],"urlList":[]}}